{
    "asset" : {
        "generator" : "Khronos glTF Blender I/O v3.4.50",
        "version" : "2.0"
    },
    "scene" : 0,
    "scenes" : [
        {
            "name" : "Scene",
            "nodes" : [
                0
            ]
        }
    ],
    "nodes" : [
        {
            "mesh" : 0,
            "name" : "Duck_Normal_Combined",
            "rotation" : [
                0.70710688829422,
                0,
                0,
                0.7071066498756409
            ],
            "scale" : [
                0.009999999776482582,
                0.009999997913837433,
                0.009999997913837433
            ],
            "translation" : [
                -0.0036852522753179073,
                -0.0019735954701900482,
                0.014696421101689339
            ]
        }
    ],
    "animations" : [
        {
            "channels" : [
                {
                    "sampler" : 0,
                    "target" : {
                        "node" : 0,
                        "path" : "translation"
                    }
                },
                {
                    "sampler" : 1,
                    "target" : {
                        "node" : 0,
                        "path" : "rotation"
                    }
                },
                {
                    "sampler" : 2,
                    "target" : {
                        "node" : 0,
                        "path" : "scale"
                    }
                }
            ],
            "name" : "Duck_Normal_Combined",
            "samplers" : [
                {
                    "input" : 11,
                    "interpolation" : "LINEAR",
                    "output" : 12
                },
                {
                    "input" : 11,
                    "interpolation" : "LINEAR",
                    "output" : 13
                },
                {
                    "input" : 11,
                    "interpolation" : "LINEAR",
                    "output" : 14
                }
            ]
        },
        {
            "channels" : [
                {
                    "sampler" : 0,
                    "target" : {
                        "node" : 0,
                        "path" : "weights"
                    }
                }
            ],
            "name" : "Key|Take 001|BaseLayer",
            "samplers" : [
                {
                    "input" : 11,
                    "interpolation" : "LINEAR",
                    "output" : 15
                }
            ]
        }
    ],
    "materials" : [
        {
            "doubleSided" : true,
            "name" : "Material",
            "pbrMetallicRoughness" : {
                "baseColorTexture" : {
                    "index" : 0
                },
                "metallicFactor" : 0,
                "roughnessFactor" : 0.5
            }
        }
    ],
    "meshes" : [
        {
            "extras" : {
                "targetNames" : [
                    "Duck_Stretch_Combined",
                    "Duck_Stretch_Far_Combined",
                    "Duck_Squash_Combined"
                ]
            },
            "name" : "Mesh",
            "primitives" : [
                {
                    "attributes" : {
                        "COLOR_0" : 0,
                        "POSITION" : 1,
                        "TEXCOORD_0" : 2,
                        "NORMAL" : 3
                    },
                    "indices" : 4,
                    "material" : 0,
                    "targets" : [
                        {
                            "POSITION" : 5,
                            "NORMAL" : 6
                        },
                        {
                            "POSITION" : 7,
                            "NORMAL" : 8
                        },
                        {
                            "POSITION" : 9,
                            "NORMAL" : 10
                        }
                    ]
                }
            ],
            "weights" : [
                0,
                0,
                0
            ]
        }
    ],
    "textures" : [
        {
            "sampler" : 0,
            "source" : 0
        }
    ],
    "images" : [
        {
            "bufferView" : 5,
            "mimeType" : "image/png",
            "name" : "texture"
        }
    ],
    "accessors" : [
        {
            "bufferView" : 0,
            "componentType" : 5123,
            "count" : 3512,
            "normalized" : true,
            "type" : "VEC4"
        },
        {
            "bufferView" : 1,
            "componentType" : 5126,
            "count" : 3512,
            "max" : [
                2.7973294258117676,
                2.457794427871704,
                -5.014354228973389
            ],
            "min" : [
                -3.180082082748413,
                -3.659151315689087,
                -11.054862976074219
            ],
            "type" : "VEC3"
        },
        {
            "bufferView" : 2,
            "componentType" : 5126,
            "count" : 3512,
            "type" : "VEC2"
        },
        {
            "bufferView" : 3,
            "componentType" : 5126,
            "count" : 3512,
            "type" : "VEC3"
        },
        {
            "bufferView" : 4,
            "componentType" : 5123,
            "count" : 18240,
            "type" : "SCALAR"
        },
        {
            "bufferView" : 6,
            "componentType" : 5126,
            "count" : 3512,
            "max" : [
                2.3502657413482666,
                1.4090533256530762,
                -0.0006723403930664062
            ],
            "min" : [
                -2.349461793899536,
                -1.1966662406921387,
                -1.6552562713623047
            ],
            "type" : "VEC3"
        },
        {
            "bufferView" : 7,
            "componentType" : 5126,
            "count" : 3512,
            "type" : "VEC3"
        },
        {
            "bufferView" : 8,
            "componentType" : 5126,
            "count" : 3512,
            "max" : [
                1.944446325302124,
                1.0831751823425293,
                0.0895223617553711
            ],
            "min" : [
                -3.3262088298797607,
                -0.9203202724456787,
                -1.5959854125976562
            ],
            "type" : "VEC3"
        },
        {
            "bufferView" : 9,
            "componentType" : 5126,
            "count" : 3512,
            "type" : "VEC3"
        },
        {
            "bufferView" : 10,
            "componentType" : 5126,
            "count" : 3512,
            "max" : [
                0.7144694328308105,
                0.8539025783538818,
                1.8701815605163574
            ],
            "min" : [
                -0.7253663539886475,
                -0.6195447444915771,
                1.9073486328125e-05
            ],
            "type" : "VEC3"
        },
        {
            "bufferView" : 11,
            "componentType" : 5126,
            "count" : 3512,
            "type" : "VEC3"
        },
        {
            "bufferView" : 12,
            "componentType" : 5126,
            "count" : 20,
            "max" : [
                0.875
            ],
            "min" : [
                0.08333333333333333
            ],
            "type" : "SCALAR"
        },
        {
            "bufferView" : 13,
            "componentType" : 5126,
            "count" : 20,
            "type" : "VEC3"
        },
        {
            "bufferView" : 14,
            "componentType" : 5126,
            "count" : 20,
            "type" : "VEC4"
        },
        {
            "bufferView" : 15,
            "componentType" : 5126,
            "count" : 20,
            "type" : "VEC3"
        },
        {
            "bufferView" : 16,
            "componentType" : 5126,
            "count" : 60,
            "type" : "SCALAR"
        }
    ],
    "bufferViews" : [
        {
            "buffer" : 0,
            "byteLength" : 28096,
            "byteOffset" : 0,
            "target" : 34962
        },
        {
            "buffer" : 0,
            "byteLength" : 42144,
            "byteOffset" : 28096,
            "target" : 34962
        },
        {
            "buffer" : 0,
            "byteLength" : 28096,
            "byteOffset" : 70240,
            "target" : 34962
        },
        {
            "buffer" : 0,
            "byteLength" : 42144,
            "byteOffset" : 98336,
            "target" : 34962
        },
        {
            "buffer" : 0,
            "byteLength" : 36480,
            "byteOffset" : 140480,
            "target" : 34963
        },
        {
            "buffer" : 0,
            "byteLength" : 26875,
            "byteOffset" : 176960
        },
        {
            "buffer" : 0,
            "byteLength" : 42144,
            "byteOffset" : 203836,
            "target" : 34962
        },
        {
            "buffer" : 0,
            "byteLength" : 42144,
            "byteOffset" : 245980,
            "target" : 34962
        },
        {
            "buffer" : 0,
            "byteLength" : 42144,
            "byteOffset" : 288124,
            "target" : 34962
        },
        {
            "buffer" : 0,
            "byteLength" : 42144,
            "byteOffset" : 330268,
            "target" : 34962
        },
        {
            "buffer" : 0,
            "byteLength" : 42144,
            "byteOffset" : 372412,
            "target" : 34962
        },
        {
            "buffer" : 0,
            "byteLength" : 42144,
            "byteOffset" : 414556,
            "target" : 34962
        },
        {
            "buffer" : 0,
            "byteLength" : 80,
            "byteOffset" : 456700
        },
        {
            "buffer" : 0,
            "byteLength" : 240,
            "byteOffset" : 456780
        },
        {
            "buffer" : 0,
            "byteLength" : 320,
            "byteOffset" : 457020
        },
        {
            "buffer" : 0,
            "byteLength" : 240,
            "byteOffset" : 457340
        },
        {
            "buffer" : 0,
            "byteLength" : 240,
            "byteOffset" : 457580
        }
    ],
    "samplers" : [
        {
            "magFilter" : 9729,
            "minFilter" : 9987
        }
    ],
    "buffers" : [
        {
            "byteLength" : 457820,
            "uri" : "data:application/octet-stream;base64,"
        }
    ]
}
